<svg width="22" height="15" viewBox="0 0 22 15" fill="none" xmlns="http://www.w3.org/2000/svg">
<path d="M11.0004 0.0614992C12.3815 0.0614992 13.7734 -0.0508634 15.1385 0.0843842C18.2051 0.388865 20.7208 2.78934 21.1714 5.69543C21.4433 7.42937 21.7028 9.17095 21.9608 10.9097C22.221 12.668 21.146 14.3083 19.4008 14.8305C17.6556 15.3528 15.8392 14.6114 14.9866 13.0272C14.5756 12.2675 14.1732 11.5046 13.7792 10.7384C13.6877 10.5588 13.5772 10.488 13.3628 10.4894C11.7879 10.4978 10.213 10.4978 8.63813 10.4894C8.42516 10.4894 8.3125 10.5588 8.22019 10.7364C7.82623 11.5044 7.42402 12.2673 7.01359 13.0252C6.18205 14.5774 4.43467 15.3195 2.70692 14.8583C0.992971 14.4019 -0.182363 12.8719 0.0233396 11.1587C0.266112 9.14043 0.543042 7.11726 0.971892 5.12947C1.59918 2.2213 4.49428 0.0538679 7.61689 0.00739816C8.74353 -0.0092477 9.87017 0.00739816 10.9975 0.00739816L11.0004 0.0614992ZM11.0266 1.50761C9.92468 1.50761 8.82203 1.49235 7.72011 1.50761C6.4115 1.5264 5.15309 1.99118 4.17224 2.81797C3.1914 3.64476 2.5528 4.77904 2.37183 6.01586C2.11598 7.71929 1.87102 9.42479 1.62607 11.1296C1.59453 11.3115 1.58647 11.4965 1.60209 11.6803C1.7053 12.5535 2.39728 13.2755 3.26588 13.4344C4.23261 13.6119 5.12956 13.2145 5.5824 12.3801C6.09459 11.4369 6.59492 10.4874 7.08337 9.5316C7.27599 9.1536 7.55728 8.9816 7.99849 8.98368C9.9964 8.992 11.9948 8.992 13.9937 8.98368C14.4516 8.98368 14.7358 9.16331 14.9328 9.55311C15.3907 10.4582 15.8777 11.3509 16.3473 12.249C16.8735 13.2478 17.9006 13.6986 18.9385 13.3858C19.9561 13.0793 20.55 12.1464 20.3923 11.0707C20.1531 9.44699 19.8893 7.82541 19.6654 6.20035C19.278 3.42604 17.0254 1.51732 14.0838 1.50206C13.0618 1.50275 12.0442 1.50761 11.0266 1.50761Z" fill="#8C8C8C"/>
<path d="M6.28673 4.49972C6.28673 4.2098 6.27656 3.97884 6.28673 3.74926C6.30999 3.30329 6.63345 3.00021 7.07102 2.99951C7.49697 2.99951 7.83932 3.31579 7.86258 3.74719C7.87494 3.97607 7.86258 4.20703 7.86258 4.50041C8.12425 4.50041 8.36048 4.49487 8.59671 4.50041C9.09098 4.51359 9.41879 4.81113 9.4217 5.24115C9.42461 5.67117 9.10842 5.97565 8.61124 5.99576C8.37283 6.00547 8.13443 5.99576 7.86331 5.99576C7.86331 6.25447 7.86331 6.47156 7.86331 6.68934C7.85313 7.15681 7.5413 7.48279 7.09646 7.49458C6.65162 7.50637 6.31872 7.19981 6.28601 6.73165C6.27002 6.50346 6.28601 6.27319 6.28601 5.99576C6.00835 5.99576 5.76921 6.00409 5.53008 5.99576C5.0329 5.97496 4.71743 5.67325 4.72398 5.23769C4.73052 4.80212 5.05179 4.51429 5.5526 4.50041C5.78084 4.49417 6.00835 4.49972 6.28673 4.49972Z" fill="#8C8C8C"/>
<path d="M15.715 6.73787C15.7152 6.93642 15.6336 7.12709 15.4879 7.26877C15.3421 7.41046 15.1438 7.49179 14.9358 7.49525C14.727 7.4973 14.5258 7.42052 14.376 7.28165C14.2262 7.14277 14.1401 6.95305 14.1362 6.75382C14.1377 6.55506 14.2204 6.36469 14.3668 6.22323C14.5131 6.08178 14.7115 6.0004 14.9198 5.99643C15.0231 5.99487 15.1258 6.01286 15.2218 6.04936C15.3179 6.08585 15.4053 6.14013 15.4793 6.20906C15.5532 6.27799 15.6121 6.36021 15.6526 6.45097C15.693 6.54174 15.7142 6.63924 15.715 6.73787Z" fill="#8C8C8C"/>
<path d="M14.919 4.50111C14.7111 4.49624 14.5134 4.41428 14.3678 4.27262C14.2222 4.13096 14.1401 3.94075 14.139 3.74233C14.1445 3.54349 14.2312 3.35457 14.3805 3.21581C14.5299 3.07706 14.7301 2.99944 14.9386 2.99951C15.0419 2.99959 15.1442 3.0193 15.2395 3.05749C15.3348 3.09568 15.4211 3.15159 15.4935 3.22196C15.5659 3.29233 15.6229 3.37575 15.6612 3.46735C15.6994 3.55896 15.7182 3.65692 15.7163 3.75551C15.7116 3.95448 15.6256 4.1438 15.4766 4.28309C15.3276 4.42238 15.1275 4.50062 14.919 4.50111Z" fill="#8C8C8C"/>
<path d="M13.3439 4.50188C13.447 4.49695 13.5501 4.51221 13.6468 4.54672C13.7435 4.58123 13.8318 4.63426 13.9062 4.70255C13.9806 4.77083 14.0396 4.85292 14.0795 4.94377C14.1195 5.03463 14.1395 5.13232 14.1384 5.23083C14.1418 5.3291 14.1246 5.42703 14.0878 5.51887C14.051 5.61071 13.9953 5.69463 13.9241 5.76569C13.8529 5.83675 13.7675 5.89352 13.673 5.93269C13.5785 5.97185 13.4767 5.99262 13.3737 5.99377C13.2704 5.99827 13.1673 5.98274 13.0705 5.94814C12.9737 5.91354 12.8853 5.86057 12.8106 5.79243C12.7358 5.7243 12.6764 5.64241 12.6357 5.55173C12.5951 5.46104 12.5741 5.36344 12.5741 5.26482C12.5707 5.16614 12.5881 5.06781 12.6252 4.97565C12.6623 4.88349 12.7184 4.79935 12.7902 4.72822C12.8619 4.6571 12.9479 4.60042 13.043 4.56154C13.1381 4.52267 13.2404 4.50238 13.3439 4.50188Z" fill="#8C8C8C"/>
<path d="M16.5079 5.99441C16.4049 5.99691 16.3024 5.97971 16.2065 5.94382C16.1105 5.90792 16.0231 5.85406 15.9493 5.78541C15.8756 5.71676 15.8169 5.63471 15.7769 5.5441C15.7369 5.4535 15.7163 5.35616 15.7164 5.25783C15.7142 5.15952 15.7327 5.0618 15.7706 4.97037C15.8086 4.87895 15.8652 4.79566 15.9373 4.72539C16.0094 4.65512 16.0954 4.59928 16.1904 4.56113C16.2854 4.52299 16.3874 4.50329 16.4905 4.50322C16.5936 4.49943 16.6966 4.51578 16.7929 4.55125C16.8892 4.58673 16.977 4.6406 17.0507 4.70955C17.1245 4.7785 17.1827 4.8611 17.2219 4.95228C17.261 5.04345 17.2802 5.14129 17.2784 5.23981C17.2819 5.33818 17.2646 5.4362 17.2274 5.528C17.1901 5.6198 17.1339 5.70346 17.0619 5.77396C16.9899 5.84446 16.9037 5.90034 16.8085 5.93822C16.7133 5.97611 16.6111 5.99522 16.5079 5.99441Z" fill="#8C8C8C"/>
</svg>
